<svg width="24" height="24" viewBox="0 0 225 225" fill="none" xmlns="http://www.w3.org/2000/svg">
  <g transform="translate(0.000000,225.000000) scale(0.100000,-0.100000)" fill="#1DC071" stroke="#1DC071" stroke-width="50">
    <path d="M1034 2232 c-79 -28 -137 -82 -170 -159 l-14 -33 -125 0 -125 0 0 -90 0 -90 -109 0 c-96 0 -112 -3 -142 -23 -73 -48 -69 2 -69 -907 0 -756 1 -817 18 -849 9 -19 30 -44 45 -55 28 -21 36 -21 782 -21 746 0 754 0 782 21 15 11 36 36 45 55 17 32 18 93 18 849 0 909 4 859 -69 907 -30 20 -46 23 -142 23 l-109 0 0 90 0 90 -124 0 -124 0 -21 44 c-64 131 -215 196 -347 148z m152 -138 c50 -24 75 -65 81 -134 l6 -60 118 0 119 0 0 -105 0 -105 -385 0 -385 0 0 105 0 105 119 0 118 0 6 60 c6 68 30 109 79 133 42 21 81 21 124 1z m-586 -459 l0 -85 525 0 525 0 0 85 0 85 90 0 90 0 0 -790 0 -790 -705 0 -705 0 0 790 0 790 90 0 90 0 0 -85z"/>
    <path d="M1080 2020 c-28 -28 -27 -84 2 -104 49 -35 108 -7 108 50 0 41 -29 74 -65 74 -14 0 -34 -9 -45 -20z"/>
    <path d="M1235 985 c-137 -156 -252 -284 -255 -284 -3 -1 -54 42 -114 94 -60 52 -113 95 -117 95 -9 0 -93 -100 -88 -104 2 -1 77 -66 166 -144 l162 -142 199 222 c110 123 247 277 305 342 l105 120 -47 43 c-25 23 -50 42 -56 42 -5 0 -122 -128 -260 -284z"/>
  </g>
</svg>
